<?xml version="1.0" encoding="UTF-8"?>
<svg version="1.1" xmlns="http://www.w3.org/2000/svg" width="452" height="125">
<path d="M0 0 C7.92 0 15.84 0 24 0 C24.33 3.96 24.66 7.92 25 12 C25.99 8.04 26.98 4.08 28 0 C42.45371312 -0.45167854 42.45371312 -0.45167854 49 3 C52.69132917 6.59418893 53.28611605 8.85834814 55 14 C56.32 9.38 57.64 4.76 59 0 C73.4363871 -0.49780645 73.4363871 -0.49780645 80 3 C84.06255771 6.95838957 85.87051999 10.94878599 86.22705078 16.59692383 C86.22673734 17.96700045 86.21562943 19.33710524 86.1953125 20.70703125 C86.1924826 21.43242599 86.18965271 22.15782074 86.18673706 22.90519714 C86.17559799 25.20780368 86.15050566 27.51001227 86.125 29.8125 C86.11496206 31.37955165 86.10583763 32.94660943 86.09765625 34.51367188 C86.0756793 38.34259978 86.04119339 42.17123256 86 46 C87.65 46 89.3 46 91 46 C90.32418217 53.83948683 88.71485763 61.32042019 87 69 C78.75 69 70.5 69 62 69 C61.67 54.48 61.34 39.96 61 25 C59.02 24.67 57.04 24.34 55 24 C55 38.85 55 53.7 55 69 C47.08 69 39.16 69 31 69 C30.67 54.48 30.34 39.96 30 25 C28.02 24.67 26.04 24.34 24 24 C24 38.85 24 53.7 24 69 C16.08 69 8.16 69 0 69 C0 54.15 0 39.3 0 24 C-1.65 24 -3.3 24 -5 24 C-4.35575667 20.74968273 -3.70932737 17.49980394 -3.0625 14.25 C-2.88009766 13.32960938 -2.69769531 12.40921875 -2.50976562 11.4609375 C-2.33251953 10.57148437 -2.15527344 9.68203125 -1.97265625 8.765625 C-1.81031494 7.94868164 -1.64797363 7.13173828 -1.48071289 6.29003906 C-1.03820278 4.18199191 -0.5224196 2.08967839 0 0 Z " fill="#5C18E7" transform="translate(40,30)"/>
<path d="M0 0 C1.6328125 0.82421875 1.6328125 0.82421875 3.8828125 2.32421875 C3.8828125 1.33421875 3.8828125 0.34421875 3.8828125 -0.67578125 C11.8028125 -0.67578125 19.7228125 -0.67578125 27.8828125 -0.67578125 C27.95077593 8.6867917 28.00573642 18.04919896 28.03824902 27.41196346 C28.05385885 31.76016901 28.07501081 36.10819601 28.10913086 40.45629883 C28.14189233 44.65789592 28.15970068 48.85932202 28.16744423 53.06103706 C28.17295777 54.65850068 28.18372392 56.25595568 28.20000267 57.85334587 C28.38472742 76.74299968 28.38472742 76.74299968 23.12109375 83.62890625 C22.48558594 84.14710937 21.85007813 84.6653125 21.1953125 85.19921875 C20.57269531 85.73289062 19.95007813 86.2665625 19.30859375 86.81640625 C12.64940602 90.95561151 6.50828069 91.81927641 -1.2421875 91.69921875 C-2.1585498 91.69269287 -3.07491211 91.68616699 -4.01904297 91.67944336 C-12.73571113 91.50908254 -20.82692289 90.08764029 -29.1171875 87.32421875 C-28.4793973 79.79829442 -26.91828917 72.65322993 -25.1171875 65.32421875 C-24.31796875 65.61296875 -23.51875 65.90171875 -22.6953125 66.19921875 C-14.93367588 68.82287056 -8.29198061 69.8544756 -0.1171875 69.32421875 C2.31706488 64.35428681 3.22897248 60.97816506 2.8828125 55.32421875 C2.2228125 57.96421875 1.5628125 60.60421875 0.8828125 63.32421875 C-6.78183463 65.06618401 -14.62531761 64.13250851 -21.6171875 60.51171875 C-28.87277536 54.16307937 -31.55522914 46.69820894 -32.27734375 37.22265625 C-32.64529095 27.40006588 -31.08336088 15.44274582 -25.1171875 7.32421875 C-18.1463245 0.06018862 -10.0976552 -3.2230523 0 0 Z M-4.8671875 23.57421875 C-7.77522141 27.64546622 -7.85700218 32.52383033 -7.1171875 37.32421875 C-5.17796989 40.51425758 -5.17796989 40.51425758 -2.1171875 42.32421875 C1.00280043 42.48596679 1.00280043 42.48596679 3.8828125 42.32421875 C3.93710223 40.09532379 3.97573588 37.86604404 4.0078125 35.63671875 C4.03101563 34.39535156 4.05421875 33.15398438 4.078125 31.875 C3.89151064 28.4823509 3.49651092 26.29276294 1.8828125 23.32421875 C-0.98893115 22.14606751 -2.28138184 21.72721471 -4.8671875 23.57421875 Z " fill="#5C18E6" transform="translate(233.1171875,30.67578125)"/>
<path d="M0 0 C1.10601562 -0.00515625 2.21203125 -0.0103125 3.3515625 -0.015625 C6.25566911 0.23951615 7.91984843 0.74098001 10.375 2.25 C10.375 1.59 10.375 0.93 10.375 0.25 C17.965 0.25 25.555 0.25 33.375 0.25 C33.375 15.43 33.375 30.61 33.375 46.25 C35.025 46.25 36.675 46.25 38.375 46.25 C38.11213292 48.02203338 37.83912312 49.79256185 37.5625 51.5625 C37.41167969 52.54863281 37.26085937 53.53476563 37.10546875 54.55078125 C36.12617632 59.5100857 34.70507643 64.3730531 33.375 69.25 C25.455 69.25 17.535 69.25 9.375 69.25 C8.88 64.795 8.88 64.795 8.375 60.25 C7.715 63.22 7.055 66.19 6.375 69.25 C-10.4141229 69.94101573 -10.4141229 69.94101573 -16.5234375 64.5859375 C-26.12764448 54.4143934 -27.02214391 43.26138127 -26.8359375 29.93359375 C-26.50130039 19.50407044 -22.61768886 11.11787163 -15.125 3.8125 C-10.2452834 0.76267712 -5.70000312 -0.02669791 0 0 Z M-0.4375 25.3125 C-2.99030869 31.62734255 -2.73608834 36.02784527 -0.609375 42.33203125 C0.35042933 44.58531658 0.35042933 44.58531658 3.375 46.25 C6.50021833 46.41699232 6.50021833 46.41699232 9.375 46.25 C9.4330476 42.97924117 9.46861165 39.70861476 9.5 36.4375 C9.51675781 35.50873047 9.53351563 34.57996094 9.55078125 33.62304688 C9.56044922 32.2840332 9.56044922 32.2840332 9.5703125 30.91796875 C9.58602295 29.68469849 9.58602295 29.68469849 9.60205078 28.42651367 C9.51496135 25.95578408 9.51496135 25.95578408 7.375 23.25 C3.67522128 22.62025043 2.10648622 22.41761913 -0.4375 25.3125 Z " fill="#5C18E8" transform="translate(160.625,29.75)"/>
<path d="M0 0 C8.955191 5.19604275 12.58270305 12.70449181 15.25 22.44921875 C16.63475187 28.57482252 16.5625 33.32280693 16.5625 39.9375 C5.6725 39.9375 -5.2175 39.9375 -16.4375 39.9375 C-13.02149326 45.77114683 -13.02149326 45.77114683 -7.625 47.765625 C-0.59210073 48.31820994 6.62300369 47.04151078 13.5625 45.9375 C12.9247098 53.46342433 11.36360167 60.60848882 9.5625 67.9375 C-2.79492619 71.34644516 -15.15939281 71.32002734 -26.625 65.25 C-34.2976918 58.9413423 -39.2747629 51.6944444 -41.4375 41.9375 C-42.67421926 29.06309595 -41.77519095 17.59532697 -33.6875 7 C-25.13231381 -2.0884965 -11.43619247 -5.30097067 0 0 Z M-14.4375 16.9375 C-16.76539515 19.77145931 -17.51127893 21.23261572 -18.4375 24.9375 C-14.4775 24.9375 -10.5175 24.9375 -6.4375 24.9375 C-7.56766255 21.41057328 -7.56766255 21.41057328 -9.4375 17.9375 C-12.01482914 16.88582473 -12.01482914 16.88582473 -14.4375 16.9375 Z " fill="#5C18E8" transform="translate(309.4375,31.0625)"/>
<path d="M0 0 C14.85 0 29.7 0 45 0 C50.49045034 23.04919576 50.49045034 23.04919576 52.8203125 32.86328125 C54.41114988 39.56425814 56.00297095 46.26499076 57.60058594 52.96435547 C58.88830786 58.36449942 60.17167057 63.76566218 61.45199585 69.16756439 C61.94164371 71.23003914 62.43287082 73.2921396 62.9256897 75.35385895 C63.61477956 78.23786575 64.29828204 81.12314281 64.98046875 84.00878906 C65.186185 84.86402664 65.39190125 85.71926422 65.60385132 86.60041809 C65.78896271 87.38843307 65.9740741 88.17644806 66.16479492 88.98834229 C66.32703049 89.67046909 66.48926605 90.3525959 66.65641785 91.05539322 C67 93 67 93 67 97 C67.66 97 68.32 97 69 97 C68.83734146 96.46864441 68.67468292 95.93728882 68.50709534 95.38983154 C67.88591386 92.46233651 67.8804863 89.7568501 67.88647461 86.76269531 C67.88658791 84.87118744 67.88658791 84.87118744 67.88670349 82.94146729 C67.89180972 81.57035279 67.8970257 80.19923869 67.90234375 78.828125 C67.90420972 77.42136689 67.90563278 76.01460812 67.90663147 74.60784912 C67.91044256 70.91219273 67.9202608 67.21657587 67.93133545 63.52093506 C67.94157986 59.74703506 67.94613558 55.97312865 67.95117188 52.19921875 C67.96188436 44.79946118 67.97894384 37.39973614 68 30 C66.35 30 64.7 30 63 30 C63.42970534 23.33956721 64.55011463 17.00122397 66 10.5 C66.17821289 9.69836426 66.35642578 8.89672852 66.54003906 8.07080078 C67.86269125 2.2746175 67.86269125 2.2746175 69 0 C78.57 0 88.14 0 98 0 C98 32.34 98 64.68 98 98 C77.21 98 56.42 98 35 98 C32 86 32 86 32 82 C27.38 82 22.76 82 18 82 C17.01 87.28 16.02 92.56 15 98 C4.44 98 -6.12 98 -17 98 C-16.36307214 92.9045771 -15.74206625 88.47273335 -14.50952148 83.58398438 C-14.20928574 82.38334351 -13.90904999 81.18270264 -13.59971619 79.94567871 C-13.27677078 78.67454224 -12.95382538 77.40340576 -12.62109375 76.09375 C-12.28580608 74.76007289 -11.95093847 73.4262901 -11.61647034 72.09240723 C-10.74112554 68.6061963 -9.86013426 65.12143709 -8.97790527 61.63696289 C-8.07621493 58.07134485 -7.17994681 54.50436468 -6.28320312 50.9375 C-4.52739911 43.95699927 -2.76561964 36.97802526 -1 30 C-2.65 30 -4.3 30 -6 30 C-5.31264479 23.36346698 -3.95773881 16.99127872 -2.4375 10.5 C-1.633125 7.035 -0.82875 3.57 0 0 Z M4 5 C1.17553741 14.89850402 1.17553741 14.89850402 0 25 C1.65 25 3.3 25 5 25 C4.69932617 26.18604073 4.69932617 26.18604073 4.39257812 27.39604187 C2.50300177 34.85409074 0.61911573 42.31354294 -1.25842285 49.77463055 C-2.22384286 53.61023679 -3.19144023 57.44526592 -4.1640625 61.27905273 C-5.10291446 64.980066 -6.03598273 68.6824937 -6.96508789 72.38596535 C-7.32026304 73.79743982 -7.67750607 75.20839563 -8.03686523 76.61881065 C-8.54050641 78.59699089 -9.0367104 80.57690087 -9.53125 82.55737305 C-9.81548828 83.68322311 -10.09972656 84.80907318 -10.39257812 85.96903992 C-11.16374889 89.30188235 -11.16374889 89.30188235 -11 94 C-3.74 94 3.52 94 11 94 C11.99 88.72 12.98 83.44 14 78 C21.26 78 28.52 78 36 78 C36.495 82.95 36.495 82.95 37 88 C37.66 89.98 38.32 91.96 39 94 C46.59 94 54.18 94 62 94 C58.47977299 77.87717553 54.70099173 61.81665663 50.91723633 45.75415039 C49.98751736 41.80719915 49.06011236 37.85970812 48.13330555 33.91207218 C47.41454233 30.85185229 46.6944831 27.79193848 45.97403526 24.73211479 C45.63112656 23.27495742 45.28864491 21.81769948 44.94660378 20.36033821 C44.47200437 18.33894791 43.99563609 16.31798253 43.51879883 14.29711914 C43.11386955 12.57653038 43.11386955 12.57653038 42.70075989 10.82118225 C42.02615431 7.94812014 42.02615431 7.94812014 41 5 C28.79 5 16.58 5 4 5 Z M73 5 C69.68992399 14.77993141 69.68992399 14.77993141 69 25 C70.32 25 71.64 25 73 25 C72.99777939 25.84968857 72.99555878 26.69937714 72.99327087 27.57481384 C72.97326986 35.56536725 72.95802684 43.5559123 72.94818783 51.54648495 C72.94295954 55.65494285 72.93586287 59.76338014 72.92456055 63.87182617 C72.91372975 67.83346828 72.90772276 71.79509052 72.90512276 75.75674629 C72.90326886 77.27148311 72.8996489 78.78621879 72.89426994 80.30094719 C72.88705693 82.41541813 72.88600917 84.52980594 72.88647461 86.64428711 C72.884254 87.85007919 72.88203339 89.05587128 72.87974548 90.29820251 C72.69175539 92.91674401 72.69175539 92.91674401 74 94 C80.6 94 87.2 94 94 94 C94 64.63 94 35.26 94 5 C87.07 5 80.14 5 73 5 Z " fill="#7F52E4" transform="translate(350,3)"/>
<path d="M0 0 C7.92 0 15.84 0 24 0 C24 15.18 24 30.36 24 46 C25.65 46 27.3 46 29 46 C28.35731979 49.27146109 27.71031325 52.54205181 27.0625 55.8125 C26.88009766 56.74126953 26.69769531 57.67003906 26.50976562 58.62695312 C26.24389648 59.9659668 26.24389648 59.9659668 25.97265625 61.33203125 C25.81031494 62.15421143 25.64797363 62.9763916 25.48071289 63.82348633 C25 66 25 66 24 69 C16.08 69 8.16 69 0 69 C0 54.15 0 39.3 0 24 C-1.65 24 -3.3 24 -5 24 C-4.41257341 15.62917111 -2.25218493 8.06427507 0 0 Z " fill="#5D17E9" transform="translate(6,30)"/>
<path d="M0 0 C4.47915328 -0.02886338 8.95828291 -0.04675187 13.4375 -0.0625 C14.71689453 -0.07087891 15.99628906 -0.07925781 17.31445312 -0.08789062 C19.13686523 -0.09272461 19.13686523 -0.09272461 20.99609375 -0.09765625 C22.12200928 -0.10289307 23.2479248 -0.10812988 24.40795898 -0.11352539 C27 0 27 0 28 1 C28.0952822 3.98298214 28.12552175 6.94276345 28.11352539 9.92602539 C28.11367142 10.86251419 28.11381744 11.79900299 28.1139679 12.76387024 C28.11326837 15.87515539 28.10547415 18.98638149 28.09765625 22.09765625 C28.09579221 24.24857043 28.09436824 26.39948503 28.09336853 28.55039978 C28.08954225 34.22381758 28.07971102 39.89720995 28.06866455 45.57061768 C28.0584528 51.35501766 28.05387142 57.13942173 28.04882812 62.92382812 C28.03808885 74.28256507 28.02049116 85.64127645 28 97 C19.09 97 10.18 97 1 97 C1.66 92.71 2.32 88.42 3 84 C2.34 84 1.68 84 1 84 C0.97473162 77.03996553 0.95716778 70.0799428 0.94506836 63.11987305 C0.94002659 60.75007688 0.93319335 58.38028385 0.92456055 56.01049805 C0.9124881 52.61245961 0.90677029 49.21446215 0.90234375 45.81640625 C0.89718246 44.74975235 0.89202118 43.68309845 0.88670349 42.5841217 C0.88662796 41.60318039 0.88655243 40.62223907 0.88647461 39.61157227 C0.884254 38.74331314 0.88203339 37.87505402 0.87974548 36.98048401 C1 35 1 35 2 34 C2.36760731 31.67182036 2.70241581 29.3381615 3 27 C2.2575 27.495 1.515 27.99 0.75 28.5 C-2 30 -2 30 -6 30 C-5.57029466 23.33956721 -4.44988537 17.00122397 -3 10.5 C-2.82178711 9.69836426 -2.64357422 8.89672852 -2.45996094 8.07080078 C-1.13730875 2.2746175 -1.13730875 2.2746175 0 0 Z M4 5 C0.68992399 14.77993141 0.68992399 14.77993141 0 25 C1.32 25 2.64 25 4 25 C3.99777939 25.84968857 3.99555878 26.69937714 3.99327087 27.57481384 C3.97326986 35.56536725 3.95802684 43.5559123 3.94818783 51.54648495 C3.94295954 55.65494285 3.93586287 59.76338014 3.92456055 63.87182617 C3.91372975 67.83346828 3.90772276 71.79509052 3.90512276 75.75674629 C3.90326886 77.27148311 3.8996489 78.78621879 3.89426994 80.30094719 C3.88705693 82.41541813 3.88600917 84.52980594 3.88647461 86.64428711 C3.884254 87.85007919 3.88203339 89.05587128 3.87974548 90.29820251 C3.69175539 92.91674401 3.69175539 92.91674401 5 94 C11.6 94 18.2 94 25 94 C25 64.63 25 35.26 25 5 C18.07 5 11.14 5 4 5 Z " fill="#7950E7" transform="translate(419,3)"/>
<path d="M0 0 C7.92 0 15.84 0 24 0 C23.360625 3.2175 22.72125 6.435 22.0625 9.75 C21.86277588 10.75772461 21.66305176 11.76544922 21.45727539 12.80371094 C21.21738892 14.00688965 21.21738892 14.00688965 20.97265625 15.234375 C20.81031494 16.05131836 20.64797363 16.86826172 20.48071289 17.70996094 C20.03820278 19.81800809 19.5224196 21.91032161 19 24 C11.08 24 3.16 24 -5 24 C-4.32944035 17.96496317 -3.5722018 12.67643093 -1.9375 6.9375 C-1.298125 4.648125 -0.65875 2.35875 0 0 Z " fill="#5C17EA" transform="translate(10,2)"/>
<path d="M0 0 C0.66 0 1.32 0 2 0 C2 32.34 2 64.68 2 98 C-18.79 98 -39.58 98 -61 98 C-64 86 -64 86 -63 82 C-62.8046875 84.05078125 -62.609375 86.1015625 -62.4140625 88.15234375 C-62.27742188 88.76207031 -62.14078125 89.37179688 -62 90 C-61.34 90.33 -60.68 90.66 -60 91 C-59.67 92.65 -59.34 94.3 -59 96 C-43.16 96.495 -43.16 96.495 -27 97 C-27.33 95.68 -27.66 94.36 -28 93 C-28.12425375 90.90307021 -28.19667352 88.80285634 -28.23706055 86.70263672 C-28.27666145 84.79078079 -28.27666145 84.79078079 -28.31706238 82.84030151 C-28.34068323 81.45343697 -28.36389222 80.06656535 -28.38671875 78.6796875 C-28.41238471 77.25529779 -28.43816867 75.83091019 -28.46406555 74.40652466 C-28.51694896 71.42584826 -28.56589202 68.44513549 -28.61254883 65.46435547 C-28.67309148 61.63956863 -28.74730368 57.81517874 -28.82492352 53.99070549 C-28.8824177 51.05178738 -28.93076131 48.11277109 -28.976511 45.17364883 C-28.99995052 43.76295261 -29.02671431 42.35230763 -29.05682945 40.94173813 C-29.09785101 38.97419339 -29.12483315 37.00637093 -29.15112305 35.03857422 C-29.17990791 33.35790359 -29.17990791 33.35790359 -29.20927429 31.64328003 C-29 29 -29 29 -27 27 C-26.01 27 -25.02 27 -24 27 C-23.95758277 29.33294775 -23.95907063 31.66702567 -24 34 C-24.33 34.33 -24.66 34.66 -25 35 C-25.1225355 36.53382679 -25.17777938 38.07310519 -25.20532227 39.61157227 C-25.22526749 40.59251358 -25.24521271 41.5734549 -25.26576233 42.5841217 C-25.28247482 43.6507756 -25.29918732 44.7174295 -25.31640625 45.81640625 C-25.33718735 46.9025975 -25.35796844 47.98878876 -25.37937927 49.1078949 C-25.44499442 52.59269627 -25.50381511 56.07757568 -25.5625 59.5625 C-25.60567385 61.91862801 -25.64928776 64.27474799 -25.69335938 66.63085938 C-25.80068792 72.42048937 -25.90243165 78.21019775 -26 84 C-25.34 84 -24.68 84 -24 84 C-23.81606878 89.42597111 -23.90291413 91.75728532 -26 97 C-17.09 97 -8.18 97 1 97 C0.67 64.99 0.34 32.98 0 0 Z " fill="#714ECC" transform="translate(446,3)"/>
<path d="M0 0 C1.65 0.33 3.3 0.66 5 1 C6.98 10.24 8.96 19.48 11 29 C5.06 29 -0.88 29 -7 29 C-6.3756494 26.02069594 -5.75053509 23.04155539 -5.125 20.0625 C-4.95097656 19.23169922 -4.77695312 18.40089844 -4.59765625 17.54492188 C-4.06903961 15.02909824 -3.53495487 12.51448277 -3 10 C-2.82049805 9.14132324 -2.64099609 8.28264648 -2.45605469 7.39794922 C-2.28235352 6.58471191 -2.10865234 5.77147461 -1.9296875 4.93359375 C-1.77483887 4.20068115 -1.61999023 3.46776855 -1.46044922 2.71264648 C-1 1 -1 1 0 0 Z M1 14 C0.34 17.63 -0.32 21.26 -1 25 C0.98 25 2.96 25 5 25 C4.34 21.37 3.68 17.74 3 14 C2.34 14 1.68 14 1 14 Z " fill="#7C51E1" transform="translate(373,35)"/>
<path d="M0 0 C1.65 0 3.3 0 5 0 C5.33 22.44 5.66 44.88 6 68 C13.26 68 20.52 68 28 68 C28 69.32 28 70.64 28 72 C19.42 72 10.84 72 2 72 C2.66 67.71 3.32 63.42 4 59 C3.34 59 2.68 59 2 59 C1.97473162 52.03996553 1.95716778 45.0799428 1.94506836 38.11987305 C1.94002659 35.75007688 1.93319335 33.38028385 1.92456055 31.01049805 C1.9124881 27.61245961 1.90677029 24.21446215 1.90234375 20.81640625 C1.89718246 19.74975235 1.89202118 18.68309845 1.88670349 17.5841217 C1.88662796 16.60318039 1.88655243 15.62223907 1.88647461 14.61157227 C1.884254 13.74331314 1.88203339 12.87505402 1.87974548 11.98048401 C2 10 2 10 3 9 C3.23075082 7.65252916 3.41153063 6.29622435 3.5625 4.9375 C3.7790625 2.9884375 3.7790625 2.9884375 4 1 C2.68 0.67 1.36 0.34 0 0 Z " fill="#8859F7" transform="translate(418,28)"/>
<path d="M0 0 C7.92 0 15.84 0 24 0 C24 15.18 24 30.36 24 46 C25.65 46 27.3 46 29 46 C27.68 52.6 26.36 59.2 25 66 C24.67 66 24.34 66 24 66 C24 62.37 24 58.74 24 55 C22.515 54.505 22.515 54.505 21 54 C21.99 54 22.98 54 24 54 C23.67 52.68 23.34 51.36 23 50 C23.66 50.33 24.32 50.66 25 51 C25.33 50.01 25.66 49.02 26 48 C24.68 47.67 23.36 47.34 22 47 C22 32.15 22 17.3 22 2 C15.07 2 8.14 2 1 2 C0.67 4.64 0.34 7.28 0 10 C-0.99 10.495 -0.99 10.495 -2 11 C-1.85892253 9.54119891 -1.71197585 8.08296449 -1.5625 6.625 C-1.48128906 5.81289063 -1.40007813 5.00078125 -1.31640625 4.1640625 C-1 2 -1 2 0 0 Z " fill="#5A2BC1" transform="translate(6,30)"/>
<path d="M0 0 C14.85 0 29.7 0 45 0 C45.495 4.455 45.495 4.455 46 9 C45.34 9.33 44.68 9.66 44 10 C44 11.98 44 13.96 44 16 C41.68205464 12.13675773 41.71102537 9.97717761 41 5 C28.79 5 16.58 5 4 5 C3.67 5.66 3.34 6.32 3 7 C3 5.68 3 4.36 3 3 C20.325 2.505 20.325 2.505 38 2 C19.685 1.505 19.685 1.505 1 1 C1.33 2.32 1.66 3.64 2 5 C1.34 5 0.68 5 0 5 C-0.33 5.66 -0.66 6.32 -1 7 C-0.67 4.69 -0.34 2.38 0 0 Z " fill="#825CDD" transform="translate(350,3)"/>
<path d="M0 0 C0.268125 0.639375 0.53625 1.27875 0.8125 1.9375 C1.88667752 4.33131686 1.88667752 4.33131686 5 5 C5 19.85 5 34.7 5 50 C11.93 50 18.86 50 26 50 C26 35.81 26 21.62 26 7 C26.66 6.67 27.32 6.34 28 6 C28 20.85 28 35.7 28 51 C20.08 51 12.16 51 4 51 C4 36.15 4 21.3 4 6 C2.35 6 0.7 6 -1 6 C-0.67 4.02 -0.34 2.04 0 0 Z " fill="#5725C1" transform="translate(36,48)"/>
<path d="M0 0 C7.59 0 15.18 0 23 0 C23 15.18 23 30.36 23 46 C22.34 46 21.68 46 21 46 C21 31.48 21 16.96 21 2 C14.73 2 8.46 2 2 2 C2 2.66 2 3.32 2 4 C-0.97 3.505 -0.97 3.505 -4 3 C-4 2.34 -4 1.68 -4 1 C-2.68 1.33 -1.36 1.66 0 2 C0 1.34 0 0.68 0 0 Z " fill="#5A2BC2" transform="translate(171,30)"/>
<path d="M0 0 C7.92 0 15.84 0 24 0 C24 4.95 24 9.9 24 15 C23.34 15 22.68 15 22 15 C21.67 11.04 21.34 7.08 21 3 C15.39 3 9.78 3 4 3 C2.55879285 6.60301788 1.69880732 9.30630418 1 13 C0.67 13.66 0.34 14.32 0 15 C-0.66 15 -1.32 15 -2 15 C-2.33 15.99 -2.66 16.98 -3 18 C-2.40247977 11.72603759 -1.39316676 6.2692504 0 0 Z " fill="#5827C4" transform="translate(40,30)"/>
<path d="M0 0 C0.33 0 0.66 0 1 0 C1.33 2.31 1.66 4.62 2 7 C10.25 7 18.5 7 27 7 C27 8.32 27 9.64 27 11 C17.76 11 8.52 11 -1 11 C-2.0036454 5.98177299 -1.79132273 4.53099278 0 0 Z " fill="#8149F2" transform="translate(337,89)"/>
<path d="M0 0 C3 3.625 3 3.625 3 7 C3.66 7 4.32 7 5 7 C5.66 8.98 6.32 10.96 7 13 C7.66 12.67 8.32 12.34 9 12 C8.67 10.68 8.34 9.36 8 8 C10.475 8.99 10.475 8.99 13 10 C13 11.65 13 13.3 13 15 C11.68 15 10.36 15 9 15 C9.33 15.66 9.66 16.32 10 17 C10.99 17.2165625 10.99 17.2165625 12 17.4375 C12.66 17.623125 13.32 17.80875 14 18 C14.33 18.99 14.66 19.98 15 21 C17.32206525 21.70491267 19.65593068 22.37212429 22 23 C22.33 23.66 22.66 24.32 23 25 C23.99 25.66 24.98 26.32 26 27 C18.00683912 26.50042744 12.67384045 23.05629074 7.25 17.25 C2.97346862 12.08293234 0 6.77656482 0 0 Z " fill="#5716E1" transform="translate(269,73)"/>
<path d="M0 0 C0.33 0 0.66 0 1 0 C1.12375 0.9075 1.2475 1.815 1.375 2.75 C1.8940792 6.23858572 1.8940792 6.23858572 4 10 C9.61 10.33 15.22 10.66 21 11 C21.33 9.35 21.66 7.7 22 6 C23 9 23 9 22 13 C14.08 13 6.16 13 -2 13 C-1 4 -1 4 0 0 Z " fill="#5A27C9" transform="translate(7,13)"/>
<path d="M0 0 C0.33 0 0.66 0 1 0 C1 13.53 1 27.06 1 41 C8.59 41 16.18 41 24 41 C24 37.7 24 34.4 24 31 C25 26.875 25 26.875 26 24 C26.66 24 27.32 24 28 24 C27.40247977 30.27396241 26.39316676 35.7307496 25 42 C16.75 42 8.5 42 0 42 C0 28.14 0 14.28 0 0 Z " fill="#5328B4" transform="translate(102,57)"/>
<path d="M0 0 C0.66 0.33 1.32 0.66 2 1 C0.09753764 3.11384707 -1.71984265 4.47509615 -4.125 6.0625 C-7.05064042 7.69145453 -7.05064042 7.69145453 -8 10 C-8.78375 10.33 -9.5675 10.66 -10.375 11 C-14.39832533 14.06539073 -14.89583751 18.21529587 -16 23 C-16.66 23 -17.32 23 -18 23 C-18.33 29.6 -18.66 36.2 -19 43 C-19.33 43 -19.66 43 -20 43 C-20.61803395 29.87021201 -20.59042579 18.98892373 -12.25 8.0625 C-8.85406696 4.46316472 -4.61680402 1.77285274 0 0 Z " fill="#5425CE" transform="translate(288,30)"/>
<path d="M0 0 C5.23273331 -0.04935824 10.46533176 -0.08569949 15.69824219 -0.10986328 C17.47919067 -0.11993431 19.26012257 -0.13359185 21.04101562 -0.15087891 C23.59769783 -0.17507913 26.15416185 -0.18647184 28.7109375 -0.1953125 C29.90944839 -0.21079636 29.90944839 -0.21079636 31.13217163 -0.22659302 C33.0895722 -0.22699226 35.04643077 -0.12241069 37 0 C37.66 0.66 38.32 1.32 39 2 C26.79 2 14.58 2 2 2 C1.67 4.31 1.34 6.62 1 9 C0.01 8.67 -0.98 8.34 -2 8 C-1.67 6.68 -1.34 5.36 -1 4 C-0.34 4 0.32 4 1 4 C0.67 2.68 0.34 1.36 0 0 Z " fill="#8953FB" transform="translate(351,4)"/>
<path d="M0 0 C0.33 0.66 0.66 1.32 1 2 C8.92 1.67 16.84 1.34 25 1 C25 2.32 25 3.64 25 5 C16.42 5 7.84 5 -1 5 C-0.67 3.35 -0.34 1.7 0 0 Z " fill="#7D49F1" transform="translate(421,95)"/>
<path d="M0 0 C7.92 0 15.84 0 24 0 C23.67 1.98 23.34 3.96 23 6 C22.67 4.68 22.34 3.36 22 2 C18.8742604 2.10962816 15.74975219 2.24031241 12.625 2.375 C11.73554688 2.4059375 10.84609375 2.436875 9.9296875 2.46875 C9.07890625 2.50742188 8.228125 2.54609375 7.3515625 2.5859375 C6.17327881 2.63306885 6.17327881 2.63306885 4.97119141 2.68115234 C2.76997061 2.8399465 2.76997061 2.8399465 1 5 C0.83318891 8.08347826 0.83318891 8.08347826 1 11 C0.01 10.67 -0.98 10.34 -2 10 C-1.125 2.25 -1.125 2.25 0 0 Z " fill="#592AC8" transform="translate(10,2)"/>
<path d="M0 0 C1.98 0 3.96 0 6 0 C4.68 6.93 3.36 13.86 2 21 C-2.29 21 -6.58 21 -11 21 C-11 20.67 -11 20.34 -11 20 C-7.04 20 -3.08 20 1 20 C1.05428973 17.77110504 1.09292338 15.54182529 1.125 13.3125 C1.14820313 12.07113281 1.17140625 10.82976562 1.1953125 9.55078125 C1.01032021 6.18762143 0.45767895 4.0014413 -1 1 C-0.67 0.67 -0.34 0.34 0 0 Z " fill="#5920D5" transform="translate(165,78)"/>
<path d="M0 0 C1.67542976 0.28604898 3.34385343 0.61781233 5 1 C5.16682272 5.92127034 5.24828052 9.50343896 3 14 C2.67 13.34 2.34 12.68 2 12 C1.01 12.33 0.02 12.66 -1 13 C-1.02686553 11.02090602 -1.04633375 9.04171029 -1.0625 7.0625 C-1.07410156 5.96035156 -1.08570313 4.85820313 -1.09765625 3.72265625 C-1 1 -1 1 0 0 Z " fill="#8753FC" transform="translate(373,35)"/>
<path d="M0 0 C0.66 0 1.32 0 2 0 C2 4.29 2 8.58 2 13 C5.1258064 12.88644298 8.25009525 12.75969417 11.375 12.625 C12.70917969 12.57859375 12.70917969 12.57859375 14.0703125 12.53125 C14.92109375 12.49257812 15.771875 12.45390625 16.6484375 12.4140625 C17.43395996 12.3826416 18.21948242 12.3512207 19.02880859 12.31884766 C21.23002939 12.1600535 21.23002939 12.1600535 23 10 C23.39764263 8.01178687 23.73775349 6.01055661 24 4 C24.66 4 25.32 4 26 4 C25.125 11.75 25.125 11.75 24 14 C16.08 14 8.16 14 0 14 C0 9.38 0 4.76 0 0 Z " fill="#5623C2" transform="translate(170,85)"/>
<path d="M0 0 C3.96 1.32 7.92 2.64 12 4 C7.80104745 5.04973814 5.20594226 4.72795155 1 4 C0.67 6.97 0.34 9.94 0 13 C1.32 13.33 2.64 13.66 4 14 C3.01 14 2.02 14 1 14 C0.67 15.32 0.34 16.64 0 18 C-0.66 17.67 -1.32 17.34 -2 17 C-2 18.65 -2 20.3 -2 22 C-2.66 22 -3.32 22 -4 22 C-3.36051919 14.45412647 -1.78232739 7.36178703 0 0 Z " fill="#5327BB" transform="translate(208,96)"/>
<path d="M0 0 C0.268125 0.639375 0.53625 1.27875 0.8125 1.9375 C1.88667752 4.33131686 1.88667752 4.33131686 5 5 C5.33 20.18 5.66 35.36 6 51 C5.34 51 4.68 51 4 51 C4 36.15 4 21.3 4 6 C2.35 6 0.7 6 -1 6 C-0.67 4.02 -0.34 2.04 0 0 Z " fill="#502BA1" transform="translate(36,48)"/>
<path d="M0 0 C-0.96355353 9.41002278 -0.96355353 9.41002278 -2 14 C-2.33 14 -2.66 14 -3 14 C-3 11.69 -3 9.38 -3 7 C-3.66 6.67 -4.32 6.34 -5 6 C-5.66 5.34 -6.32 4.68 -7 4 C-8.9931567 3.97624074 -8.9931567 3.97624074 -11.125 4.375 C-13.043125 4.684375 -13.043125 4.684375 -15 5 C-13 2 -13 2 -10.72265625 1.26953125 C-9.84480469 1.11871094 -8.96695312 0.96789062 -8.0625 0.8125 C-7.18722656 0.65394531 -6.31195313 0.49539062 -5.41015625 0.33203125 C-3 0 -3 0 0 0 Z " fill="#5524CC" transform="translate(323,77)"/>
<path d="M0 0 C1.27875 0.103125 2.5575 0.20625 3.875 0.3125 C4.95394531 0.39951172 4.95394531 0.39951172 6.0546875 0.48828125 C8 1 8 1 10 4 C9.67 4.99 9.34 5.98 9 7 C8.67 6.67 8.34 6.34 8 6 C7.34 10.29 6.68 14.58 6 19 C5.67 19 5.34 19 5 19 C3.66568714 13.99632677 2.62094325 6.7581135 5 2 C3.35 1.67 1.7 1.34 0 1 C0 0.67 0 0.34 0 0 Z " fill="#5B20DA" transform="translate(229,72)"/>
<path d="M0 0 C2.31 0 4.62 0 7 0 C6.67 0.99 6.34 1.98 6 3 C5.88734453 4.36515314 5.82417414 5.73477212 5.79467773 7.10424805 C5.77473251 7.92487228 5.75478729 8.74549652 5.73423767 9.59098816 C5.71752518 10.47232925 5.70081268 11.35367035 5.68359375 12.26171875 C5.66281265 13.16751175 5.64203156 14.07330475 5.62062073 15.00654602 C5.55523442 17.90012016 5.49629096 20.79378507 5.4375 23.6875 C5.3943044 25.64909793 5.35068977 27.61068668 5.30664062 29.57226562 C5.19956418 34.38141739 5.09826586 39.19066046 5 44 C4.67 44 4.34 44 4 44 C4 30.47 4 16.94 4 3 C3.34 3 2.68 3 2 3 C2 2.34 2 1.68 2 1 C1.34 0.67 0.68 0.34 0 0 Z " fill="#541DD5" transform="translate(99,54)"/>
<path d="M0 0 C0.33 1.32 0.66 2.64 1 4 C-6.92 4 -14.84 4 -23 4 C-22.67 3.34 -22.34 2.68 -22 2 C-21.40461426 1.97494385 -20.80922852 1.9498877 -20.19580078 1.92407227 C-17.50530864 1.80822506 -14.8151766 1.68544804 -12.125 1.5625 C-11.18785156 1.52318359 -10.25070312 1.48386719 -9.28515625 1.44335938 C-8.38925781 1.40146484 -7.49335938 1.35957031 -6.5703125 1.31640625 C-5.32918701 1.26141968 -5.32918701 1.26141968 -4.06298828 1.20532227 C-1.93820571 1.11761673 -1.93820571 1.11761673 0 0 Z " fill="#8A4FFD" transform="translate(363,96)"/>
<path d="M0 0 C1.32 0 2.64 0 4 0 C2.68 6.6 1.36 13.2 0 20 C-0.33 20 -0.66 20 -1 20 C-1 16.37 -1 12.74 -1 9 C-1.99 8.67 -2.98 8.34 -4 8 C-3.01 8 -2.02 8 -1 8 C-1.33 6.68 -1.66 5.36 -2 4 C-1.34 4.33 -0.68 4.66 0 5 C0.33 4.01 0.66 3.02 1 2 C0.67 1.34 0.34 0.68 0 0 Z " fill="#5822D1" transform="translate(31,76)"/>
<path d="M0 0 C2.14336161 3.4766338 2.21277626 6.21229195 2.125 10.25 C2.10695313 11.32765625 2.08890625 12.4053125 2.0703125 13.515625 C2.04710937 14.33546875 2.02390625 15.1553125 2 16 C1.01 16 0.02 16 -1 16 C-2.77641602 10.44869995 -2.53883587 5.23634898 0 0 Z " fill="#7A4DE7" transform="translate(378,41)"/>
<path d="M0 0 C0.33 0 0.66 0 1 0 C1 4.62 1 9.24 1 14 C1.99 13.67 2.98 13.34 4 13 C4.49230769 19.4 4.49230769 19.4 2 22.4375 C1.01 23.2109375 1.01 23.2109375 0 24 C-0.625 21.625 -0.625 21.625 -1 19 C-0.34 18.34 0.32 17.68 1 17 C0.67 16.67 0.34 16.34 0 16 C-0.07319621 13.30345146 -0.09242537 10.63308542 -0.0625 7.9375 C-0.05798828 7.17888672 -0.05347656 6.42027344 -0.04882812 5.63867188 C-0.0370068 3.75908129 -0.01907078 1.87953101 0 0 Z " fill="#6426E8" transform="translate(237,59)"/>
<path d="M0 0 C0.66 0 1.32 0 2 0 C2.33 0.66 2.66 1.32 3 2 C3.66 2.144375 4.32 2.28875 5 2.4375 C5.66 2.623125 6.32 2.80875 7 3 C7.33 3.99 7.66 4.98 8 6 C10.32206525 6.70491267 12.65593068 7.37212429 15 8 C15.33 8.66 15.66 9.32 16 10 C16.99 10.66 17.98 11.32 19 12 C11.72390186 11.54524387 6.93035779 8.56406307 1.5 3.8125 C0 2 0 2 0 0 Z " fill="#5421C2" transform="translate(276,88)"/>
<path d="M0 0 C0.33 0 0.66 0 1 0 C1 2.31 1 4.62 1 7 C0.01 7.33 -0.98 7.66 -2 8 C-2 11.63 -2 15.26 -2 19 C-2.66 19 -3.32 19 -4 19 C-4 19.99 -4 20.98 -4 22 C-4.99 21.67 -5.98 21.34 -7 21 C-6.525625 20.05125 -6.05125 19.1025 -5.5625 18.125 C-3.85084021 14.21604672 -3.56625257 10.56543247 -3.40625 6.33203125 C-2.91684649 3.52266684 -1.89239374 2.09997775 0 0 Z " fill="#5821D2" transform="translate(240,79)"/>
<path d="M0 0 C0.99 0.495 0.99 0.495 2 1 C2.625 4.0625 2.625 4.0625 3 7 C3.33 4.69 3.66 2.38 4 0 C5.67110042 2.96178773 6.32682752 5.37071192 6.625 8.75 C6.69976562 9.54921875 6.77453125 10.3484375 6.8515625 11.171875 C6.92503906 12.07679687 6.92503906 12.07679687 7 13 C6.67 12.01 6.34 11.02 6 10 C5.34 10 4.68 10 4 10 C4 11.98 4 13.96 4 16 C1.11388804 11.0523795 0 5.66834163 0 0 Z " fill="#7A52DA" transform="translate(398,37)"/>
<path d="M0 0 C0.99 0.33 1.98 0.66 3 1 C4.33363703 1.14403348 5.67218046 1.24590423 7.01171875 1.31640625 C8.14770508 1.37924805 8.14770508 1.37924805 9.30664062 1.44335938 C10.48516602 1.50233398 10.48516602 1.50233398 11.6875 1.5625 C12.88342773 1.62727539 12.88342773 1.62727539 14.10351562 1.69335938 C16.06881447 1.79927368 18.03438496 1.90012551 20 2 C20 2.66 20 3.32 20 4 C13.73 4 7.46 4 1 4 C0.67 2.68 0.34 1.36 0 0 Z " fill="#884EFD" transform="translate(386,96)"/>
<path d="M0 0 C0.125 2.375 0.125 2.375 0 5 C-0.66 5.66 -1.32 6.32 -2 7 C-2.25818767 11.47525292 -1.85686966 15.60854301 -1 20 C-4.48366652 16.51633348 -4.82799944 11.49067154 -5.375 6.75 C-4.9951336 3.96431307 -3.4399489 0 0 0 Z " fill="#5A22D1" transform="translate(139,64)"/>
<path d="M0 0 C1.3049427 4.05982172 0.73256315 6.44868981 -1.0625 10.25 C-1.371875 10.8275 -1.68125 11.405 -2 12 C-2.66 12 -3.32 12 -4 12 C-4 14.64 -4 17.28 -4 20 C-4.66 19.67 -5.32 19.34 -6 19 C-5.47736695 11.8137955 -3.19357866 6.38715733 0 0 Z " fill="#5A24CD" transform="translate(208,38)"/>
<path d="M0 0 C0.33 0 0.66 0 1 0 C1.2493357 1.60115576 1.47378648 3.20620159 1.6875 4.8125 C1.81511719 5.70582031 1.94273438 6.59914063 2.07421875 7.51953125 C2 10 2 10 0.51953125 11.82421875 C0.01808594 12.21222656 -0.48335938 12.60023437 -1 13 C-4.53790403 9.30827405 -4.59115883 5.90609405 -5 1 C-2.8614515 3.1385485 -2.57344937 4.13275314 -2 7 C-1.34 4.69 -0.68 2.38 0 0 Z " fill="#5923C7" transform="translate(97,37)"/>
<path d="M0 0 C9.02984567 -0.63690134 15.28514567 0.1237941 23 5 C20.36749612 6.31625194 19.19820944 5.74813658 16.375 5.0625 C15.55773437 4.86785156 14.74046875 4.67320313 13.8984375 4.47265625 C13.27195312 4.31667969 12.64546875 4.16070312 12 4 C12 3.01 12 2.02 12 1 C8.04 1 4.08 1 0 1 C0 0.67 0 0.34 0 0 Z " fill="#5D2ACC" transform="translate(291,29)"/>
<path d="M0 0 C0.33 0.99 0.66 1.98 1 3 C5.62 3 10.24 3 15 3 C15 3.66 15 4.32 15 5 C9.72 5 4.44 5 -1 5 C-0.67 3.35 -0.34 1.7 0 0 Z " fill="#8951FE" transform="translate(421,95)"/>
<path d="M0 0 C0.515625 0.763125 1.03125 1.52625 1.5625 2.3125 C4.55847644 5.61575607 6.85712514 6.48625726 11 8 C10.01 9.485 10.01 9.485 9 11 C6.375 11.1875 6.375 11.1875 4 11 C3.896875 10.401875 3.79375 9.80375 3.6875 9.1875 C3.16745356 6.92027543 3.16745356 6.92027543 1.4375 5.5 C0 4 0 4 0 0 Z " fill="#5821D2" transform="translate(292,71)"/>
<path d="M0 0 C0.33 0 0.66 0 1 0 C0.96519531 0.69867188 0.93039062 1.39734375 0.89453125 2.1171875 C0.86746094 3.02726562 0.84039062 3.93734375 0.8125 4.875 C0.77769531 5.77992187 0.74289062 6.68484375 0.70703125 7.6171875 C0.80371094 8.40351562 0.90039062 9.18984375 1 10 C1.99 10.66 2.98 11.32 4 12 C3.67 13.32 3.34 14.64 3 16 C3 15.01 3 14.02 3 13 C1.35 13 -0.3 13 -2 13 C-1.85769192 11.58297487 -1.71099254 10.1663904 -1.5625 8.75 C-1.48128906 7.96109375 -1.40007812 7.1721875 -1.31640625 6.359375 C-1.02365007 4.17635361 -0.57935581 2.1226818 0 0 Z " fill="#5C28C2" transform="translate(3,41)"/>
<path d="M0 0 C0.99 0.33 1.98 0.66 3 1 C3 4.96 3 8.92 3 13 C1 12 1 12 -0.1875 8.75 C-0.95061988 5.22790825 -1.0252106 3.38319499 0 0 Z " fill="#7F4EF4" transform="translate(399,32)"/>
<path d="M0 0 C0.66 0 1.32 0 2 0 C2 4.29 2 8.58 2 13 C1.01 13.33 0.02 13.66 -1 14 C-1.33 11.69 -1.66 9.38 -2 7 C-1.34 7 -0.68 7 0 7 C0 4.69 0 2.38 0 0 Z " fill="#8953FA" transform="translate(348,17)"/>
<path d="M0 0 C2.97 0.33 5.94 0.66 9 1 C9.66 2.65 10.32 4.3 11 6 C5.64951939 5.62671065 3.49087093 4.0042343 0 0 Z " fill="#5420CB" transform="translate(143,92)"/>
<path d="M0 0 C3.3 0 6.6 0 10 0 C10 0.99 10 1.98 10 3 C6.7 3.33 3.4 3.66 0 4 C0 2.68 0 1.36 0 0 Z " fill="#7E4DF2" transform="translate(368,60)"/>
<path d="M0 0 C2.68092691 2.68092691 2.38670257 4.39167363 2.625 8.125 C2.69976562 9.22070312 2.77453125 10.31640625 2.8515625 11.4453125 C2.90054687 12.28835937 2.94953125 13.13140625 3 14 C-0.09669083 10.90330917 -0.93656826 8.09948351 -1.1875 3.75 C-1 1 -1 1 0 0 Z " fill="#8753F8" transform="translate(405,56)"/>
<path d="M0 0 C0.66 0 1.32 0 2 0 C1.88512252 1.58409994 1.75765492 3.16728963 1.625 4.75 C1.52058594 6.07257812 1.52058594 6.07257812 1.4140625 7.421875 C1.00149945 9.99066382 0.28839043 11.75841015 -1 14 C-1.33 14 -1.66 14 -2 14 C-2.21192221 8.80790596 -1.5912689 4.873261 0 0 Z " fill="#8650F9" transform="translate(346,49)"/>
<path d="M0 0 C4.17858365 3.71429658 7.17846829 7.64185802 9 13 C8.67 13.66 8.34 14.32 8 15 C0 3.28571429 0 3.28571429 0 0 Z " fill="#5526C0" transform="translate(314,35)"/>
<path d="M0 0 C3.16717283 1.58358642 4.73268318 2.45263699 6.3125 5.6875 C6.539375 6.450625 6.76625 7.21375 7 8 C4.61435923 7.42415568 2.33317216 6.77772405 0 6 C0 4.02 0 2.04 0 0 Z " fill="#561FD1" transform="translate(117,32)"/>
<path d="M0 0 C2.31 0 4.62 0 7 0 C6.01 0.33 5.02 0.66 4 1 C3.26676204 3.01508358 3.26676204 3.01508358 3 5 C2.34 4.67 1.68 4.34 1 4 C1 5.65 1 7.3 1 9 C0.34 9 -0.32 9 -1 9 C-0.67 6.03 -0.34 3.06 0 0 Z " fill="#5822D3" transform="translate(205,109)"/>
<path d="M0 0 C0.66 0 1.32 0 2 0 C2.21278058 4.46839215 1.59138085 7.82262526 0 12 C-0.66 12 -1.32 12 -2 12 C-1.85904936 10.3745692 -1.71207913 8.74965949 -1.5625 7.125 C-1.48128906 6.22007813 -1.40007812 5.31515625 -1.31640625 4.3828125 C-1 2 -1 2 0 0 Z " fill="#814EF9" transform="translate(340,75)"/>
<path d="M0 0 C3.2906843 0.56735936 4.92249762 1.36849698 7 4 C7.51171875 6.48046875 7.51171875 6.48046875 7.6875 9.1875 C7.75324219 10.08855469 7.81898438 10.98960938 7.88671875 11.91796875 C7.92410156 12.60503906 7.96148437 13.29210938 8 14 C6.73890831 11.59246132 5.86475204 9.51697156 5.125 6.875 C4.27827768 3.88668933 4.27827768 3.88668933 1.875 2.625 C1.25625 2.41875 0.6375 2.2125 0 2 C0 1.34 0 0.68 0 0 Z " fill="#5B21D6" transform="translate(317,47)"/>
<path d="M0 0 C3.63 0 7.26 0 11 0 C10.67 0.66 10.34 1.32 10 2 C9.34 2 8.68 2 8 2 C8.33 3.98 8.66 5.96 9 8 C8.34 8 7.68 8 7 8 C6.38125 6.576875 6.38125 6.576875 5.75 5.125 C4.1697355 1.61663189 4.1697355 1.61663189 0 0 Z " fill="#5622D1" transform="translate(295,47)"/>
<path d="M0 0 C0.33 0 0.66 0 1 0 C1 2.97 1 5.94 1 9 C-0.65 9.33 -2.3 9.66 -4 10 C-4.33 9.01 -4.66 8.02 -5 7 C-3.68 6.67 -2.36 6.34 -1 6 C-0.67 4.02 -0.34 2.04 0 0 Z " fill="#6D21F1" transform="translate(64,45)"/>
<path d="M0 0 C1.32 0 2.64 0 4 0 C3.34 3.96 2.68 7.92 2 12 C1.67 12 1.34 12 1 12 C1 8.7 1 5.4 1 2 C0.34 1.67 -0.32 1.34 -1 1 C-0.67 0.67 -0.34 0.34 0 0 Z " fill="#5429BE" transform="translate(195,76)"/>
<path d="M0 0 C0.66 0.33 1.32 0.66 2 1 C1.360625 1.5775 0.72125 2.155 0.0625 2.75 C-2.0347071 5.03786229 -2.39514664 6.07654209 -3 9 C-3.99 9.495 -3.99 9.495 -5 10 C-5.33 10.99 -5.66 11.98 -6 13 C-6.66 13 -7.32 13 -8 13 C-6.63589551 7.40717158 -3.84616474 4.08806189 0 0 Z " fill="#5529C2" transform="translate(145,34)"/>
<path d="M0 0 C0.99 0.495 0.99 0.495 2 1 C2 1.66 2 2.32 2 3 C3.32 3.33 4.64 3.66 6 4 C7.125 7.75 7.125 7.75 6 10 C0.42857143 3.71428571 0.42857143 3.71428571 0 0 Z " fill="#5320C9" transform="translate(204,80)"/>
<path d="M0 0 C3 3.625 3 3.625 3 7 C3.66 7 4.32 7 5 7 C5.33 9.31 5.66 11.62 6 14 C2.67016949 11.30442292 1.45548306 7.95059687 0 4 C0 2.68 0 1.36 0 0 Z " fill="#5227C0" transform="translate(269,73)"/>
<path d="M0 0 C1.65 0.33 3.3 0.66 5 1 C5 2.65 5 4.3 5 6 C3.02 5.34 1.04 4.68 -1 4 C-0.67 2.68 -0.34 1.36 0 0 Z " fill="#7B56DD" transform="translate(373,35)"/>
<path d="M0 0 C0.66 0 1.32 0 2 0 C2.33 2.64 2.66 5.28 3 8 C2.01 8.66 1.02 9.32 0 10 C-0.66 9.67 -1.32 9.34 -2 9 C-1.34 6.03 -0.68 3.06 0 0 Z " fill="#854BF9" transform="translate(416,20)"/>
<path d="M0 0 C1.32789969 2.1871289 2.04752686 3.47720456 1.8125 6.0625 C0.89199398 8.25755282 -0.21596223 9.44866281 -2 11 C-2.625 8.1875 -2.625 8.1875 -3 5 C-2.34 4.01 -1.68 3.02 -1 2 C-0.67 1.34 -0.34 0.68 0 0 Z " fill="#8157E1" transform="translate(399,25)"/>
<path d="M0 0 C0.66 0 1.32 0 2 0 C2.1953125 6.0546875 2.1953125 6.0546875 2 8 C1.34 8.66 0.68 9.32 0 10 C-0.66 9.67 -1.32 9.34 -2 9 C-1.34 6.03 -0.68 3.06 0 0 Z " fill="#7547F9" transform="translate(420,87)"/>
<path d="M0 0 C0.33 0 0.66 0 1 0 C1.33 3.3 1.66 6.6 2 10 C1.01 10.33 0.02 10.66 -1 11 C-1.33 11.99 -1.66 12.98 -2 14 C-1.03644647 4.58997722 -1.03644647 4.58997722 0 0 Z " fill="#5B27C9" transform="translate(39,34)"/>
<path d="M0 0 C0.99 0 1.98 0 3 0 C3 2.31 3 4.62 3 7 C2.01 7.495 2.01 7.495 1 8 C0.87625 7.195625 0.7525 6.39125 0.625 5.5625 C0.315625 4.2940625 0.315625 4.2940625 0 3 C-0.66 2.67 -1.32 2.34 -2 2 C-1.34 1.34 -0.68 0.68 0 0 Z " fill="#7A4AF7" transform="translate(419,30)"/>
<path d="M0 0 C0.66 0 1.32 0 2 0 C1.67 3.3 1.34 6.6 1 10 C0.34 10 -0.32 10 -1 10 C-2.15837626 5.94568308 -1.83691257 3.78187881 0 0 Z " fill="#8152F6" transform="translate(419,8)"/>
<path d="M0 0 C0.66 0 1.32 0 2 0 C1.9129995 1.62600941 1.8048219 3.25089678 1.6875 4.875 C1.62949219 5.77992187 1.57148438 6.68484375 1.51171875 7.6171875 C1 10 1 10 -2 12 C-2 10.68 -2 9.36 -2 8 C-1.34 8 -0.68 8 0 8 C0 5.36 0 2.72 0 0 Z " fill="#5821CA" transform="translate(30,8)"/>
<path d="M0 0 C0.33 0 0.66 0 1 0 C1.66 3.63 2.32 7.26 3 11 C1.68 11.33 0.36 11.66 -1 12 C-0.67 8.04 -0.34 4.08 0 0 Z " fill="#8256E4" transform="translate(386,86)"/>
<path d="M0 0 C0.268125 0.639375 0.53625 1.27875 0.8125 1.9375 C1.88667752 4.33131686 1.88667752 4.33131686 5 5 C5 7.97 5 10.94 5 14 C4.67 14 4.34 14 4 14 C4 11.36 4 8.72 4 6 C2.35 6 0.7 6 -1 6 C-0.67 4.02 -0.34 2.04 0 0 Z " fill="#5733AF" transform="translate(36,48)"/>
<path d="M0 0 C1.32 0 2.64 0 4 0 C3.34 3.63 2.68 7.26 2 11 C1.67 11 1.34 11 1 11 C1.01160156 10.37351562 1.02320313 9.74703125 1.03515625 9.1015625 C1.04417969 8.28429687 1.05320313 7.46703125 1.0625 6.625 C1.07990234 5.40683594 1.07990234 5.40683594 1.09765625 4.1640625 C1.14466334 1.95062858 1.14466334 1.95062858 0 0 Z " fill="#552AB1" transform="translate(31,76)"/>
<path d="M0 0 C0.33 0 0.66 0 1 0 C1.37211538 6.57403846 1.37211538 6.57403846 -0.51171875 8.73046875 C-1.00285156 9.14941406 -1.49398438 9.56835938 -2 10 C-1.85950482 8.52031676 -1.71245174 7.04125484 -1.5625 5.5625 C-1.48128906 4.73878906 -1.40007812 3.91507812 -1.31640625 3.06640625 C-1 1 -1 1 0 0 Z " fill="#844FFA" transform="translate(343,64)"/>
<path d="M0 0 C0.99 0.33 1.98 0.66 3 1 C2.34 1 1.68 1 1 1 C0.67 3.31 0.34 5.62 0 8 C-0.99 7.67 -1.98 7.34 -3 7 C-2.67 5.68 -2.34 4.36 -2 3 C-1.34 3 -0.68 3 0 3 C0 2.01 0 1.02 0 0 Z " fill="#7F50F6" transform="translate(352,5)"/>
<path d="M0 0 C0.33 0 0.66 0 1 0 C0.67 2.97 0.34 5.94 0 9 C-0.66 8.01 -1.32 7.02 -2 6 C-2.66 6 -3.32 6 -4 6 C-3.67 4.68 -3.34 3.36 -3 2 C-2.01 2.33 -1.02 2.66 0 3 C0 2.01 0 1.02 0 0 Z " fill="#7F57E2" transform="translate(365,91)"/>
<path d="M0 0 C0.66 0 1.32 0 2 0 C2 0.99 2 1.98 2 3 C3.32 3.33 4.64 3.66 6 4 C5.34 5.32 4.68 6.64 4 8 C0 2.25 0 2.25 0 0 Z " fill="#5222C6" transform="translate(138,84)"/>
<path d="M0 0 C0.66 0.33 1.32 0.66 2 1 C0.02579865 3.52259061 -0.96745642 3.9929808 -4.1875 4.6875 C-5.5796875 4.8421875 -5.5796875 4.8421875 -7 5 C-4.63707344 2.47411298 -3.33537489 1.11179163 0 0 Z " fill="#5429CA" transform="translate(288,30)"/>
</svg>
